<svg width="26" height="31" viewBox="0 0 26 31" fill="none" xmlns="http://www.w3.org/2000/svg">
<path d="M13.4378 0.458774C13.1071 0.464056 12.7921 0.6032 12.5617 0.845667C12.3314 1.08813 12.2045 1.41411 12.2091 1.75206V2.38999H5.34383C5.17849 2.38769 5.01434 2.419 4.86093 2.48209C4.70753 2.54518 4.56791 2.63879 4.45019 2.75749C4.33247 2.87619 4.239 3.01761 4.1752 3.17355C4.1114 3.32948 4.07854 3.49681 4.07854 3.66583H2.22328C2.05787 3.66344 1.89365 3.69468 1.74016 3.75772C1.58667 3.82077 1.44697 3.91436 1.32917 4.03307C1.21138 4.15178 1.11784 4.29324 1.054 4.44922C0.990153 4.6052 0.957275 4.7726 0.957275 4.94168C0.957275 5.11076 0.990153 5.27816 1.054 5.43414C1.11784 5.59012 1.21138 5.73158 1.32917 5.85029C1.44697 5.969 1.58667 6.0626 1.74016 6.12564C1.89365 6.18868 2.05787 6.21992 2.22328 6.21753H24.6913C24.8567 6.21992 25.0209 6.18868 25.1744 6.12564C25.3279 6.0626 25.4676 5.969 25.5854 5.85029C25.7032 5.73158 25.7967 5.59012 25.8606 5.43414C25.9244 5.27816 25.9573 5.11076 25.9573 4.94168C25.9573 4.7726 25.9244 4.6052 25.8606 4.44922C25.7967 4.29324 25.7032 4.15178 25.5854 4.03307C25.4676 3.91436 25.3279 3.82077 25.1744 3.75772C25.0209 3.69468 24.8567 3.66344 24.6913 3.66583H22.836C22.836 3.49681 22.8032 3.32948 22.7394 3.17355C22.6756 3.01761 22.5821 2.87619 22.4644 2.75749C22.3466 2.63879 22.207 2.54518 22.0536 2.48209C21.9002 2.419 21.7361 2.38769 21.5707 2.38999H14.7055V1.75206C14.7078 1.58137 14.6765 1.41194 14.6136 1.25381C14.5507 1.09568 14.4573 0.952069 14.3391 0.831474C14.2209 0.71088 14.0802 0.615757 13.9254 0.551738C13.7706 0.48772 13.6048 0.456108 13.4378 0.458774ZM2.22328 8.76922L4.4613 28.206C4.60859 29.4907 5.67254 30.4586 6.93824 30.4586H19.9763C21.242 30.4586 22.3047 29.4907 22.4533 28.206L24.6913 8.76922H2.22328Z" fill="#EB3223"/>
</svg>
