<svg width="22" height="22" viewBox="0 0 22 22" fill="none" xmlns="http://www.w3.org/2000/svg">
<path fill-rule="evenodd" clip-rule="evenodd" d="M11.0001 0.916626C5.43133 0.916626 0.916748 5.43121 0.916748 11C0.916748 16.5687 5.43133 21.0833 11.0001 21.0833C16.5688 21.0833 21.0834 16.5687 21.0834 11C21.0834 5.43121 16.5688 0.916626 11.0001 0.916626ZM15.3707 9.29496C15.4512 9.20296 15.5125 9.0958 15.551 8.97978C15.5894 8.86376 15.6043 8.74121 15.5947 8.61936C15.5851 8.49751 15.5512 8.37881 15.495 8.27024C15.4389 8.16168 15.3616 8.06544 15.2677 7.98719C15.1738 7.90894 15.0652 7.85026 14.9483 7.8146C14.8313 7.77894 14.7085 7.76702 14.5869 7.77955C14.4653 7.79208 14.3475 7.82879 14.2403 7.88754C14.1331 7.94629 14.0387 8.02587 13.9627 8.12163L10.0211 12.8507L7.9815 10.8102C7.80861 10.6432 7.57706 10.5508 7.33671 10.5529C7.09637 10.555 6.86645 10.6514 6.6965 10.8214C6.52654 10.9913 6.43013 11.2212 6.42805 11.4616C6.42596 11.7019 6.51835 11.9335 6.68533 12.1064L9.43533 14.8564C9.5254 14.9464 9.63323 15.0167 9.75196 15.0627C9.87069 15.1087 9.9977 15.1295 10.1249 15.1237C10.2521 15.1179 10.3767 15.0857 10.4908 15.0291C10.6049 14.9725 10.7059 14.8928 10.7874 14.795L15.3707 9.29496Z" fill="#0FA958"/>
</svg>
