<svg width="40" height="40" viewBox="0 0 40 40" fill="none" xmlns="http://www.w3.org/2000/svg">
<path d="M30.4375 4C29.7552 4 29.0727 4.26058 28.5521 4.78125L25.3333 8L32 14.6667L35.2187 11.4479C36.2601 10.4066 36.2601 8.71842 35.2187 7.67708L32.3229 4.78125C31.8022 4.26058 31.1198 4 30.4375 4ZM22.6667 10.6667L7.01302 26.3203C7.01302 26.3203 8.23671 26.2107 8.69271 26.6667C9.14871 27.1227 8.77333 30.1067 9.33333 30.6667C9.89333 31.2267 12.8585 30.8325 13.2839 31.2578C13.7092 31.6831 13.6797 32.987 13.6797 32.987L29.3333 17.3333L22.6667 10.6667ZM5.33333 30.6667L4.07552 34.2292C4.02607 34.3698 4.00055 34.5176 4 34.6667C4 35.0203 4.14048 35.3594 4.39052 35.6095C4.64057 35.8595 4.97971 36 5.33333 36C5.48236 35.9995 5.63025 35.9739 5.77083 35.9245C5.77518 35.9228 5.77952 35.921 5.78385 35.9193L5.81771 35.9089C5.82032 35.9071 5.82292 35.9054 5.82552 35.9036L9.33333 34.6667L7.33333 32.6667L5.33333 30.6667Z" fill="white"/>
</svg>
