<svg width="22" height="22" viewBox="0 0 22 22" fill="none" xmlns="http://www.w3.org/2000/svg">
<path d="M15.8889 11.5238C12.5156 11.5238 9.77778 13.8705 9.77778 16.7619C9.77778 19.6533 12.5156 22 15.8889 22C19.2622 22 22 19.6533 22 16.7619C22 13.8705 19.2622 11.5238 15.8889 11.5238ZM17.9056 19.2238L15.2778 16.9714V13.619H16.5V16.5419L18.7611 18.48L17.9056 19.2238V19.2238ZM17.1111 2.09524H13.2244C12.7111 0.88 11.3667 0 9.77778 0C8.18889 0 6.84444 0.88 6.33111 2.09524H2.44444C1.1 2.09524 0 3.0381 0 4.19048V19.9048C0 21.0571 1.1 22 2.44444 22H9.91222C9.18912 21.3984 8.60087 20.6883 8.17667 19.9048H2.44444V4.19048H4.88889V7.33333H14.6667V4.19048H17.1111V9.51238C17.9789 9.61714 18.7978 9.83714 19.5556 10.141V4.19048C19.5556 3.0381 18.4556 2.09524 17.1111 2.09524ZM9.77778 4.19048C9.10556 4.19048 8.55556 3.71905 8.55556 3.14286C8.55556 2.56667 9.10556 2.09524 9.77778 2.09524C10.45 2.09524 11 2.56667 11 3.14286C11 3.71905 10.45 4.19048 9.77778 4.19048Z" fill="#E4A951"/>
</svg>
