<svg width="22" height="22" viewBox="0 0 22 22" fill="none" xmlns="http://www.w3.org/2000/svg">
<path d="M11 0C4.917 0 0 4.917 0 11C0 17.083 4.917 22 11 22C17.083 22 22 17.083 22 11C22 4.917 17.083 0 11 0ZM15.73 15.73C15.6282 15.832 15.5074 15.9129 15.3743 15.9681C15.2412 16.0233 15.0986 16.0517 14.9545 16.0517C14.8104 16.0517 14.6678 16.0233 14.5347 15.9681C14.4016 15.9129 14.2808 15.832 14.179 15.73L11 12.551L7.821 15.73C7.61532 15.9357 7.33637 16.0512 7.0455 16.0512C6.75463 16.0512 6.47568 15.9357 6.27 15.73C6.06432 15.5243 5.94878 15.2454 5.94878 14.9545C5.94878 14.8105 5.97714 14.6679 6.03226 14.5348C6.08738 14.4017 6.16816 14.2808 6.27 14.179L9.449 11L6.27 7.821C6.06432 7.61532 5.94878 7.33637 5.94878 7.0455C5.94878 6.75463 6.06432 6.47568 6.27 6.27C6.47568 6.06432 6.75463 5.94878 7.0455 5.94878C7.33637 5.94878 7.61532 6.06432 7.821 6.27L11 9.449L14.179 6.27C14.2808 6.16816 14.4017 6.08738 14.5348 6.03226C14.6679 5.97714 14.8105 5.94878 14.9545 5.94878C15.0985 5.94878 15.2411 5.97714 15.3742 6.03226C15.5073 6.08738 15.6282 6.16816 15.73 6.27C15.8318 6.37184 15.9126 6.49274 15.9677 6.6258C16.0229 6.75886 16.0512 6.90148 16.0512 7.0455C16.0512 7.18952 16.0229 7.33214 15.9677 7.4652C15.9126 7.59826 15.8318 7.71916 15.73 7.821L12.551 11L15.73 14.179C16.148 14.597 16.148 15.301 15.73 15.73Z" fill="#F24E1E"/>
</svg>
