<?xml version="1.0" encoding="UTF-8"?>
<svg xmlns="http://www.w3.org/2000/svg" xmlns:xlink="http://www.w3.org/1999/xlink" width="50pt" height="50pt" viewBox="0 0 50 50" version="1.1">
<g id="surface6130">
<path style=" stroke:none;fill-rule:nonzero;fill:rgb(100%,14.901961%,0%);fill-opacity:1;" d="M 25 5 C 13.953125 5 5 13.953125 5 25 C 5 36.046875 13.953125 45 25 45 C 36.046875 45 45 36.046875 45 25 C 45 13.953125 36.046875 5 25 5 Z M 27.355469 25 C 27.355469 25 32.589844 30.230469 32.84375 30.488281 C 33.496094 31.140625 33.496094 32.195312 32.84375 32.84375 C 32.191406 33.496094 31.136719 33.496094 30.488281 32.84375 C 30.230469 32.589844 25 27.355469 25 27.355469 C 25 27.355469 19.769531 32.589844 19.511719 32.84375 C 18.859375 33.496094 17.804688 33.496094 17.15625 32.84375 C 16.503906 32.191406 16.503906 31.136719 17.15625 30.488281 C 17.410156 30.230469 22.644531 25 22.644531 25 C 22.644531 25 17.410156 19.769531 17.15625 19.511719 C 16.503906 18.859375 16.503906 17.804688 17.15625 17.15625 C 17.808594 16.503906 18.863281 16.503906 19.511719 17.15625 C 19.769531 17.410156 25 22.644531 25 22.644531 C 25 22.644531 30.230469 17.410156 30.488281 17.15625 C 31.140625 16.503906 32.195312 16.503906 32.84375 17.15625 C 33.496094 17.808594 33.496094 18.863281 32.84375 19.511719 C 32.589844 19.769531 27.355469 25 27.355469 25 Z M 27.355469 25 "/>
</g>
</svg>
