<svg id="visual" viewBox="0 0 900 600" width="900" height="600" xmlns="http://www.w3.org/2000/svg" xmlns:xlink="http://www.w3.org/1999/xlink" version="1.1"><rect x="0" y="0" width="900" height="600" fill="#101820"></rect><defs><linearGradient id="grad1_0" x1="33.3%" y1="0%" x2="100%" y2="100%"><stop offset="20%" stop-color="#1d2730" stop-opacity="1"></stop><stop offset="80%" stop-color="#1d2730" stop-opacity="1"></stop></linearGradient></defs><defs><linearGradient id="grad1_1" x1="33.3%" y1="0%" x2="100%" y2="100%"><stop offset="20%" stop-color="#1d2730" stop-opacity="1"></stop><stop offset="80%" stop-color="#1b252e" stop-opacity="1"></stop></linearGradient></defs><defs><linearGradient id="grad1_2" x1="33.3%" y1="0%" x2="100%" y2="100%"><stop offset="20%" stop-color="#19232b" stop-opacity="1"></stop><stop offset="80%" stop-color="#1b252e" stop-opacity="1"></stop></linearGradient></defs><defs><linearGradient id="grad1_3" x1="33.3%" y1="0%" x2="100%" y2="100%"><stop offset="20%" stop-color="#19232b" stop-opacity="1"></stop><stop offset="80%" stop-color="#172029" stop-opacity="1"></stop></linearGradient></defs><defs><linearGradient id="grad1_4" x1="33.3%" y1="0%" x2="100%" y2="100%"><stop offset="20%" stop-color="#161e27" stop-opacity="1"></stop><stop offset="80%" stop-color="#172029" stop-opacity="1"></stop></linearGradient></defs><defs><linearGradient id="grad1_5" x1="33.3%" y1="0%" x2="100%" y2="100%"><stop offset="20%" stop-color="#161e27" stop-opacity="1"></stop><stop offset="80%" stop-color="#141c24" stop-opacity="1"></stop></linearGradient></defs><defs><linearGradient id="grad1_6" x1="33.3%" y1="0%" x2="100%" y2="100%"><stop offset="20%" stop-color="#121a22" stop-opacity="1"></stop><stop offset="80%" stop-color="#141c24" stop-opacity="1"></stop></linearGradient></defs><defs><linearGradient id="grad1_7" x1="33.3%" y1="0%" x2="100%" y2="100%"><stop offset="20%" stop-color="#121a22" stop-opacity="1"></stop><stop offset="80%" stop-color="#101820" stop-opacity="1"></stop></linearGradient></defs><defs><linearGradient id="grad2_0" x1="0%" y1="0%" x2="66.7%" y2="100%"><stop offset="20%" stop-color="#1d2730" stop-opacity="1"></stop><stop offset="80%" stop-color="#1d2730" stop-opacity="1"></stop></linearGradient></defs><defs><linearGradient id="grad2_1" x1="0%" y1="0%" x2="66.7%" y2="100%"><stop offset="20%" stop-color="#1b252e" stop-opacity="1"></stop><stop offset="80%" stop-color="#1d2730" stop-opacity="1"></stop></linearGradient></defs><defs><linearGradient id="grad2_2" x1="0%" y1="0%" x2="66.7%" y2="100%"><stop offset="20%" stop-color="#1b252e" stop-opacity="1"></stop><stop offset="80%" stop-color="#19232b" stop-opacity="1"></stop></linearGradient></defs><defs><linearGradient id="grad2_3" x1="0%" y1="0%" x2="66.7%" y2="100%"><stop offset="20%" stop-color="#172029" stop-opacity="1"></stop><stop offset="80%" stop-color="#19232b" stop-opacity="1"></stop></linearGradient></defs><defs><linearGradient id="grad2_4" x1="0%" y1="0%" x2="66.7%" y2="100%"><stop offset="20%" stop-color="#172029" stop-opacity="1"></stop><stop offset="80%" stop-color="#161e27" stop-opacity="1"></stop></linearGradient></defs><defs><linearGradient id="grad2_5" x1="0%" y1="0%" x2="66.7%" y2="100%"><stop offset="20%" stop-color="#141c24" stop-opacity="1"></stop><stop offset="80%" stop-color="#161e27" stop-opacity="1"></stop></linearGradient></defs><defs><linearGradient id="grad2_6" x1="0%" y1="0%" x2="66.7%" y2="100%"><stop offset="20%" stop-color="#141c24" stop-opacity="1"></stop><stop offset="80%" stop-color="#121a22" stop-opacity="1"></stop></linearGradient></defs><defs><linearGradient id="grad2_7" x1="0%" y1="0%" x2="66.7%" y2="100%"><stop offset="20%" stop-color="#101820" stop-opacity="1"></stop><stop offset="80%" stop-color="#121a22" stop-opacity="1"></stop></linearGradient></defs><g transform="translate(900, 0)"><path d="M0 458C-89.5 452.2 -179 446.3 -229.9 398.1C-280.7 349.9 -292.9 259.4 -322.2 186C-351.4 112.6 -397.7 56.3 -444 0L0 0Z" fill="#111921"></path><path d="M0 400.8C-78.3 395.6 -156.6 390.5 -201.1 348.4C-245.6 306.2 -256.3 227 -281.9 162.8C-307.5 98.5 -348 49.3 -388.5 0L0 0Z" fill="#131b23"></path><path d="M0 343.5C-67.1 339.1 -134.3 334.7 -172.4 298.6C-210.5 262.4 -219.7 194.6 -241.6 139.5C-263.6 84.4 -298.3 42.2 -333 0L0 0Z" fill="#151d26"></path><path d="M0 286.3C-55.9 282.6 -111.9 278.9 -143.7 248.8C-175.4 218.7 -183.1 162.1 -201.4 116.3C-219.6 70.4 -248.6 35.2 -277.5 0L0 0Z" fill="#161f28"></path><path d="M0 229C-44.8 226.1 -89.5 223.2 -114.9 199.1C-140.4 175 -146.5 129.7 -161.1 93C-175.7 56.3 -198.9 28.1 -222 0L0 0Z" fill="#18222a"></path><path d="M0 171.8C-33.6 169.6 -67.1 167.4 -86.2 149.3C-105.3 131.2 -109.8 97.3 -120.8 69.8C-131.8 42.2 -149.1 21.1 -166.5 0L0 0Z" fill="#1a242c"></path><path d="M0 114.5C-22.4 113 -44.8 111.6 -57.5 99.5C-70.2 87.5 -73.2 64.9 -80.5 46.5C-87.9 28.1 -99.4 14.1 -111 0L0 0Z" fill="#1c262f"></path><path d="M0 57.3C-11.2 56.5 -22.4 55.8 -28.7 49.8C-35.1 43.7 -36.6 32.4 -40.3 23.3C-43.9 14.1 -49.7 7 -55.5 0L0 0Z" fill="#1d2730"></path></g><g transform="translate(0, 600)"><path d="M0 -459.7C67.2 -410.7 134.4 -361.6 182 -315.2C229.6 -268.8 257.7 -225.1 299.6 -173C341.6 -120.9 397.3 -60.5 453 0L0 0Z" fill="#111921"></path><path d="M0 -402.2C58.8 -359.3 117.6 -316.4 159.2 -275.8C200.9 -235.2 225.5 -197 262.2 -151.4C298.9 -105.8 347.6 -52.9 396.4 0L0 0Z" fill="#131b23"></path><path d="M0 -344.8C50.4 -308 100.8 -271.2 136.5 -236.4C172.2 -201.6 193.3 -168.8 224.7 -129.8C256.2 -90.7 298 -45.3 339.8 0L0 0Z" fill="#151d26"></path><path d="M0 -287.3C42 -256.7 84 -226 113.7 -197C143.5 -168 161.1 -140.7 187.3 -108.1C213.5 -75.6 248.3 -37.8 283.1 0L0 0Z" fill="#161f28"></path><path d="M0 -229.9C33.6 -205.3 67.2 -180.8 91 -157.6C114.8 -134.4 128.9 -112.5 149.8 -86.5C170.8 -60.5 198.6 -30.2 226.5 0L0 0Z" fill="#18222a"></path><path d="M0 -172.4C25.2 -154 50.4 -135.6 68.2 -118.2C86.1 -100.8 96.7 -84.4 112.4 -64.9C128.1 -45.3 149 -22.7 169.9 0L0 0Z" fill="#1a242c"></path><path d="M0 -114.9C16.8 -102.7 33.6 -90.4 45.5 -78.8C57.4 -67.2 64.4 -56.3 74.9 -43.3C85.4 -30.2 99.3 -15.1 113.3 0L0 0Z" fill="#1c262f"></path><path d="M0 -57.5C8.4 -51.3 16.8 -45.2 22.7 -39.4C28.7 -33.6 32.2 -28.1 37.5 -21.6C42.7 -15.1 49.7 -7.6 56.6 0L0 0Z" fill="#1d2730"></path></g></svg>